<svg width="354" height="314" viewBox="0 0 354 314" fill="none" xmlns="http://www.w3.org/2000/svg">
<path d="M200.6 290L197.6 256.3H148.2L145.2 290C144.5 297.8 139.8 305.3 132.4 311.3V311.4H213.4V311.3C206 305.3 201.3 297.8 200.6 290Z" fill="#BFCFE2"/>
<path opacity="0.28" d="M148.2 256.3L146.4 276.5H199.4L197.6 256.3H148.2Z" fill="#1F3969" stroke="#1F3969" stroke-width="4" stroke-miterlimit="10" stroke-linecap="round" stroke-linejoin="round"/>
<path d="M200.6 290L197.6 256.3H148.2L145.2 290C144.5 297.8 139.8 305.3 132.4 311.3V311.4H213.4V311.3C206 305.3 201.3 297.8 200.6 290Z" stroke="#1F3969" stroke-width="4" stroke-miterlimit="10" stroke-linecap="round" stroke-linejoin="round"/>
<path d="M330.9 261.3H14.8999C8.2999 261.3 2.8999 255.9 2.8999 249.3V43.2998C2.8999 36.6998 8.2999 31.2998 14.8999 31.2998H330.9C337.5 31.2998 342.9 36.6998 342.9 43.2998V249.3C342.9 256 337.5 261.3 330.9 261.3Z" fill="white"/>
<path d="M330.9 261.3H14.8999C8.2999 261.3 2.8999 255.9 2.8999 249.3V43.2998C2.8999 36.6998 8.2999 31.2998 14.8999 31.2998H330.9C337.5 31.2998 342.9 36.6998 342.9 43.2998V249.3C342.9 256 337.5 261.3 330.9 261.3Z" fill="#BFCFE2"/>
<path d="M330.9 261.3H14.8999C8.2999 261.3 2.8999 255.9 2.8999 249.3V43.2998C2.8999 36.6998 8.2999 31.2998 14.8999 31.2998H330.9C337.5 31.2998 342.9 36.6998 342.9 43.2998V249.3C342.9 256 337.5 261.3 330.9 261.3Z" stroke="#1F3969" stroke-width="4" stroke-miterlimit="10" stroke-linecap="round" stroke-linejoin="round"/>
<path d="M325.956 222.928L325.956 48.3281L19.9556 48.3281L19.9556 222.928L325.956 222.928Z" fill="#F6F9FD"/>
<path opacity="0.28" d="M30.8999 31.2998V169.9C30.8999 174.3 34.4999 177.9 38.8999 177.9H228C232.4 177.9 236 174.3 236 169.9V31.2998H30.8999Z" fill="#1F3969" stroke="#1F3969" stroke-width="4" stroke-miterlimit="10" stroke-linecap="round" stroke-linejoin="round"/>
<path d="M325.956 222.928L325.956 48.3281L19.9556 48.3281L19.9556 222.928L325.956 222.928Z" stroke="#1F3969" stroke-width="4" stroke-miterlimit="10" stroke-linecap="round" stroke-linejoin="round"/>
<path d="M159.5 242H186.4" stroke="#1F3969" stroke-width="4" stroke-miterlimit="10" stroke-linecap="round" stroke-linejoin="round"/>
<path d="M237 166.899H47.8999C43.4999 166.899 39.8999 163.299 39.8999 158.899V10.6992C39.8999 6.29922 43.4999 2.69922 47.8999 2.69922H237C241.4 2.69922 245 6.29922 245 10.6992V158.999C245 163.399 241.4 166.899 237 166.899Z" fill="#2D425E"/>
<path d="M245 22.0996H39.8999V10.5996C39.8999 6.19961 43.4999 2.59961 47.8999 2.59961H237C241.4 2.59961 245 6.19961 245 10.5996V22.0996Z" stroke="#1F3969" stroke-width="4" stroke-miterlimit="10" stroke-linecap="round" stroke-linejoin="round"/>
<path d="M245 25.8996H39.8999V10.5996C39.8999 6.19961 43.4999 2.59961 47.8999 2.59961H237C241.4 2.59961 245 6.19961 245 10.5996V25.8996Z" fill="#D0DDF0"/>
<path d="M245 25.8996H39.8999V10.5996C39.8999 6.19961 43.4999 2.59961 47.8999 2.59961H237C241.4 2.59961 245 6.19961 245 10.5996V25.8996Z" stroke="#1F3969" stroke-width="4" stroke-miterlimit="10" stroke-linecap="round" stroke-linejoin="round"/>
<path d="M245 25.8996H39.8999V10.5996C39.8999 6.19961 43.4999 2.59961 47.8999 2.59961H237C241.4 2.59961 245 6.19961 245 10.5996V25.8996Z" stroke="#1F3969" stroke-width="4" stroke-miterlimit="10" stroke-linecap="round" stroke-linejoin="round"/>
<path d="M237 166.899H47.8999C43.4999 166.899 39.8999 163.299 39.8999 158.899V10.6992C39.8999 6.29922 43.4999 2.69922 47.8999 2.69922H237C241.4 2.69922 245 6.29922 245 10.6992V158.999C245 163.399 241.4 166.899 237 166.899Z" stroke="#1F3969" stroke-width="4" stroke-miterlimit="10" stroke-linecap="round" stroke-linejoin="round"/>
<path opacity="0.28" d="M335.7 202.299H219.7C215.3 202.299 211.7 198.699 211.7 194.299V71.3994C211.7 66.9994 215.3 63.3994 219.7 63.3994H335.7C340.1 63.3994 343.7 66.9994 343.7 71.3994V194.299C343.7 198.799 340.1 202.299 335.7 202.299Z" fill="#1F3969" stroke="#1F3969" stroke-width="4" stroke-miterlimit="10" stroke-linecap="round" stroke-linejoin="round"/>
<path d="M343.7 195.299H227.7C223.3 195.299 219.7 191.699 219.7 187.299V64.3994C219.7 59.9994 223.3 56.3994 227.7 56.3994H343.7C348.1 56.3994 351.7 59.9994 351.7 64.3994V187.299C351.7 191.799 348.1 195.299 343.7 195.299Z" fill="#2AA1FF"/>
<path d="M343.7 195.299H227.7C223.3 195.299 219.7 191.699 219.7 187.299V64.3994C219.7 59.9994 223.3 56.3994 227.7 56.3994H343.7C348.1 56.3994 351.7 59.9994 351.7 64.3994V187.299C351.7 191.799 348.1 195.299 343.7 195.299Z" stroke="#1F3969" stroke-width="4" stroke-miterlimit="10" stroke-linecap="round" stroke-linejoin="round"/>
<path opacity="0.34" d="M326.4 94.4998H244.8C241.9 94.4998 239.6 92.1998 239.6 89.2998V81.4998C239.6 78.5998 241.9 76.2998 244.8 76.2998H326.4C329.3 76.2998 331.6 78.5998 331.6 81.4998V89.2998C331.6 92.1998 329.3 94.4998 326.4 94.4998Z" stroke="white" stroke-width="2" stroke-miterlimit="10" stroke-linecap="round" stroke-linejoin="round"/>
<g opacity="0.34">
<path opacity="0.34" d="M290.6 123.8H245C242.1 123.8 239.8 121.5 239.8 118.6V110.8C239.8 107.9 242.1 105.6 245 105.6H290.6C293.5 105.6 295.8 107.9 295.8 110.8V118.6C295.7 121.5 293.4 123.8 290.6 123.8Z" stroke="white" stroke-width="2" stroke-miterlimit="10" stroke-linecap="round" stroke-linejoin="round"/>
<path opacity="0.34" d="M326.5 123.8H308.8C305.9 123.8 303.6 121.5 303.6 118.6V110.8C303.6 107.9 305.9 105.6 308.8 105.6H326.5C329.4 105.6 331.7 107.9 331.7 110.8V118.6C331.7 121.5 329.4 123.8 326.5 123.8Z" stroke="white" stroke-width="2" stroke-miterlimit="10" stroke-linecap="round" stroke-linejoin="round"/>
</g>
<path d="M239.7 154.199H331.6" stroke="white" stroke-width="2" stroke-miterlimit="10" stroke-linecap="round" stroke-linejoin="round"/>
<path d="M239.7 164.999H331.6" stroke="white" stroke-width="2" stroke-miterlimit="10" stroke-linecap="round" stroke-linejoin="round"/>
<path d="M239.7 175.799H295.7" stroke="white" stroke-width="2" stroke-miterlimit="10" stroke-linecap="round" stroke-linejoin="round"/>
<path d="M60 18.2998C62.2091 18.2998 64 16.5089 64 14.2998C64 12.0907 62.2091 10.2998 60 10.2998C57.7909 10.2998 56 12.0907 56 14.2998C56 16.5089 57.7909 18.2998 60 18.2998Z" fill="#1F3969"/>
<path d="M73.8999 18.2998C76.109 18.2998 77.8999 16.5089 77.8999 14.2998C77.8999 12.0907 76.109 10.2998 73.8999 10.2998C71.6908 10.2998 69.8999 12.0907 69.8999 14.2998C69.8999 16.5089 71.6908 18.2998 73.8999 18.2998Z" fill="#1F3969"/>
<path d="M87.7999 18.2998C90.0091 18.2998 91.7999 16.5089 91.7999 14.2998C91.7999 12.0907 90.0091 10.2998 87.7999 10.2998C85.5908 10.2998 83.7999 12.0907 83.7999 14.2998C83.7999 16.5089 85.5908 18.2998 87.7999 18.2998Z" fill="#1F3969"/>
<path d="M157.7 44.3994H170.7" stroke="white" stroke-width="4" stroke-miterlimit="10" stroke-linecap="round" stroke-linejoin="round"/>
<path d="M91.8 44.3994H148.1" stroke="#7BFFA0" stroke-width="4" stroke-miterlimit="10" stroke-linecap="round" stroke-linejoin="round"/>
<path d="M64 44.3994H83.8" stroke="#9169FF" stroke-width="4" stroke-miterlimit="10" stroke-linecap="round" stroke-linejoin="round"/>
<path d="M89.8 142.899H132.8" stroke="#9169FF" stroke-width="4" stroke-miterlimit="10" stroke-linecap="round" stroke-linejoin="round"/>
<path d="M64 142.899H77.9" stroke="#7BFFA0" stroke-width="4" stroke-miterlimit="10" stroke-linecap="round" stroke-linejoin="round"/>
<path d="M148.1 56.6992H156.2" stroke="white" stroke-width="4" stroke-miterlimit="10" stroke-linecap="round" stroke-linejoin="round"/>
<path d="M111.3 56.6992H138.5" stroke="#9169FF" stroke-width="4" stroke-miterlimit="10" stroke-linecap="round" stroke-linejoin="round"/>
<path d="M73.8999 56.6992H101.6" stroke="#FFC47D" stroke-width="4" stroke-miterlimit="10" stroke-linecap="round" stroke-linejoin="round"/>
<path d="M116.8 69H140.7" stroke="white" stroke-width="4" stroke-miterlimit="10" stroke-linecap="round" stroke-linejoin="round"/>
<path d="M86.7999 69H109.3" stroke="#FF5757" stroke-width="4" stroke-miterlimit="10" stroke-linecap="round" stroke-linejoin="round"/>
<path d="M120 81.2998H124.9" stroke="white" stroke-width="4" stroke-miterlimit="10" stroke-linecap="round" stroke-linejoin="round"/>
<path d="M100.2 81.2998H111.3" stroke="#9169FF" stroke-width="4" stroke-miterlimit="10" stroke-linecap="round" stroke-linejoin="round"/>
<path d="M73.8999 81.2998H91.7999" stroke="#7BFFA0" stroke-width="4" stroke-miterlimit="10" stroke-linecap="round" stroke-linejoin="round"/>
<path d="M112.3 93.6992H144.2" stroke="#FFC47D" stroke-width="4" stroke-miterlimit="10" stroke-linecap="round" stroke-linejoin="round"/>
<path d="M73.8999 93.6992H102.5" stroke="#FF5757" stroke-width="4" stroke-miterlimit="10" stroke-linecap="round" stroke-linejoin="round"/>
<path d="M149.2 106H166.5" stroke="#9169FF" stroke-width="4" stroke-miterlimit="10" stroke-linecap="round" stroke-linejoin="round"/>
<path d="M112.3 106H140" stroke="#FF5757" stroke-width="4" stroke-miterlimit="10" stroke-linecap="round" stroke-linejoin="round"/>
<path d="M86.7999 106H102.5" stroke="#7BFFA0" stroke-width="4" stroke-miterlimit="10" stroke-linecap="round" stroke-linejoin="round"/>
<path d="M124.9 118.3H140" stroke="white" stroke-width="4" stroke-miterlimit="10" stroke-linecap="round" stroke-linejoin="round"/>
<path d="M86.7999 118.3H114.5" stroke="#9169FF" stroke-width="4" stroke-miterlimit="10" stroke-linecap="round" stroke-linejoin="round"/>
<path d="M164.2 130.6H181.5" stroke="white" stroke-width="4" stroke-miterlimit="10" stroke-linecap="round" stroke-linejoin="round"/>
<path d="M111.3 130.6H154.8" stroke="#FFC47D" stroke-width="4" stroke-miterlimit="10" stroke-linecap="round" stroke-linejoin="round"/>
<path d="M73.8999 130.6H101.6" stroke="white" stroke-width="4" stroke-miterlimit="10" stroke-linecap="round" stroke-linejoin="round"/>
</svg>
