<svg width="352" height="303" viewBox="0 0 352 303" fill="none" xmlns="http://www.w3.org/2000/svg">
<path d="M32.3999 83V147H20.3999C15.9999 147 12.3999 143.4 12.3999 139V91C12.3999 86.6 15.9999 83 20.3999 83H32.3999Z" fill="#B4D8ED"/>
<path d="M32.3999 173.1V227.1H20.3999C15.9999 227.1 12.3999 223.5 12.3999 219.1V181.1C12.3999 176.7 15.9999 173.1 20.3999 173.1H32.3999Z" fill="#B4D8ED"/>
<path opacity="0.73" d="M23.8059 83.0444L23.8059 147.044L32.4059 147.044L32.4059 83.0444L23.8059 83.0444Z" fill="#7BA9BF"/>
<path opacity="0.73" d="M23.8521 173.098L23.8521 227.098L32.4521 227.098L32.4521 173.098L23.8521 173.098Z" fill="#7BA9BF"/>
<path d="M32.3999 83V147H20.3999C15.9999 147 12.3999 143.4 12.3999 139V91C12.3999 86.6 15.9999 83 20.3999 83H32.3999Z" stroke="#2D2D2D" stroke-width="6" stroke-miterlimit="10" stroke-linecap="round" stroke-linejoin="round"/>
<path d="M32.3999 173.1V227.1H20.3999C15.9999 227.1 12.3999 223.5 12.3999 219.1V181.1C12.3999 176.7 15.9999 173.1 20.3999 173.1H32.3999Z" stroke="#2D2D2D" stroke-width="6" stroke-miterlimit="10" stroke-linecap="round" stroke-linejoin="round"/>
<path d="M32.3999 3.6001H3.19995V21.6001H32.3999V290.6C32.3999 295.6 36.3999 299.6 41.3999 299.6C46.3999 299.6 50.3999 295.6 50.3999 290.6V21.6001C50.3999 11.7001 42.3999 3.6001 32.3999 3.6001Z" fill="#4F5C68"/>
<path d="M32.3999 3.6001H3.19995V21.6001H32.3999V290.6C32.3999 295.6 36.3999 299.6 41.3999 299.6C46.3999 299.6 50.3999 295.6 50.3999 290.6V21.6001C50.3999 11.7001 42.3999 3.6001 32.3999 3.6001Z" stroke="#2D2D2D" stroke-width="6" stroke-miterlimit="10" stroke-linecap="round" stroke-linejoin="round"/>
<path d="M199.2 282.1H311.2C316.7 282.1 321.2 277.6 321.2 272.1V250.1H189.2V272.1C189.2 277.6 193.7 282.1 199.2 282.1Z" fill="#35BC6C"/>
<path d="M189.296 260.311L321.296 260.311L321.296 251.111L189.296 251.111L189.296 260.311Z" fill="#2AA85D"/>
<path d="M314.3 282.1H307.3V268.1C307.3 267 308.2 266.1 309.3 266.1H312.3C313.4 266.1 314.3 267 314.3 268.1V282.1Z" fill="#FFC661"/>
<path d="M302.3 282.1H295.3V268.1C295.3 267 296.2 266.1 297.3 266.1H300.3C301.4 266.1 302.3 267 302.3 268.1V282.1Z" fill="#FFC661"/>
<path d="M290.3 282.1H283.3V268.1C283.3 267 284.2 266.1 285.3 266.1H288.3C289.4 266.1 290.3 267 290.3 268.1V282.1Z" fill="#FFC661"/>
<path d="M278.3 282.1H271.3V268.1C271.3 267 272.2 266.1 273.3 266.1H276.3C277.4 266.1 278.3 267 278.3 268.1V282.1Z" fill="#FFC661"/>
<path d="M266.3 282.1H259.3V268.1C259.3 267 260.2 266.1 261.3 266.1H264.3C265.4 266.1 266.3 267 266.3 268.1V282.1Z" fill="#FFC661"/>
<path d="M254.3 282.1H247.3V268.1C247.3 267 248.2 266.1 249.3 266.1H252.3C253.4 266.1 254.3 267 254.3 268.1V282.1Z" fill="#FFC661"/>
<path d="M242.3 282.1H235.3V268.1C235.3 267 236.2 266.1 237.3 266.1H240.3C241.4 266.1 242.3 267 242.3 268.1V282.1Z" fill="#FFC661"/>
<path d="M230.3 282.1H223.3V268.1C223.3 267 224.2 266.1 225.3 266.1H228.3C229.4 266.1 230.3 267 230.3 268.1V282.1Z" fill="#FFC661"/>
<path d="M218.3 282.1H211.3V268.1C211.3 267 212.2 266.1 213.3 266.1H216.3C217.4 266.1 218.3 267 218.3 268.1V282.1Z" fill="#FFC661"/>
<path d="M206.3 282.1H199.3V268.1C199.3 267 200.2 266.1 201.3 266.1H204.3C205.4 266.1 206.3 267 206.3 268.1V282.1Z" fill="#FFC661"/>
<path d="M199.2 282.1H311.2C316.7 282.1 321.2 277.6 321.2 272.1V250.1H189.2V272.1C189.2 277.6 193.7 282.1 199.2 282.1Z" stroke="#2D2D2D" stroke-width="6" stroke-miterlimit="10" stroke-linecap="round" stroke-linejoin="round"/>
<path d="M115 282.1H159C164.5 282.1 169 277.6 169 272.1V250.1H105V272.1C105 277.6 109.5 282.1 115 282.1Z" fill="#35BC6C"/>
<path d="M105 260.311L169 260.311L169 251.111L105 251.111L105 260.311Z" fill="#2AA85D"/>
<path d="M158.8 282.1H151.8V268.1C151.8 267 152.7 266.1 153.8 266.1H156.8C157.9 266.1 158.8 267 158.8 268.1V282.1Z" fill="#FFC661"/>
<path d="M146.8 282.1H139.8V268.1C139.8 267 140.7 266.1 141.8 266.1H144.8C145.9 266.1 146.8 267 146.8 268.1V282.1Z" fill="#FFC661"/>
<path d="M134.8 282.1H127.8V268.1C127.8 267 128.7 266.1 129.8 266.1H132.8C133.9 266.1 134.8 267 134.8 268.1V282.1Z" fill="#FFC661"/>
<path d="M122.8 282.1H115.8V268.1C115.8 267 116.7 266.1 117.8 266.1H120.8C121.9 266.1 122.8 267 122.8 268.1V282.1Z" fill="#FFC661"/>
<path d="M115 282.1H159C164.5 282.1 169 277.6 169 272.1V250.1H105V272.1C105 277.6 109.5 282.1 115 282.1Z" stroke="#2D2D2D" stroke-width="6" stroke-miterlimit="10" stroke-linecap="round" stroke-linejoin="round"/>
<path d="M326.4 70.1001H68.3999V151.6H50.3999V250.1H326.4C338.6 250.1 348.4 240.3 348.4 228.1V92.1001C348.4 80.0001 338.6 70.1001 326.4 70.1001Z" fill="#3C4652"/>
<path d="M326.4 70.1001H319.1C331.3 70.1001 341.1 79.9001 341.1 92.1001V228.1C341.1 240.3 331.3 250.1 319.1 250.1H326.4C338.6 250.1 348.4 240.3 348.4 228.1V92.1001C348.4 80.0001 338.6 70.1001 326.4 70.1001Z" fill="#363F49"/>
<path d="M326.4 242.2H50.3999V250.1H326.4C338.6 250.1 348.4 240.3 348.4 228.1V220.2C348.4 232.4 338.6 242.2 326.4 242.2Z" fill="#2F3942"/>
<path d="M326.4 70.1001H68.3999V79.1001H326.4C338.6 79.1001 348.4 88.9001 348.4 101.1V92.1001C348.4 80.0001 338.6 70.1001 326.4 70.1001Z" fill="#46515B"/>
<path d="M68.3999 151.6H50.3999V160.6H68.3999V151.6Z" fill="#46515B"/>
<path d="M60.5999 151.6H50.3999V250.1H60.5999V151.6Z" fill="#2F3942"/>
<path d="M326.4 70.1001H68.3999V151.6H50.3999V250.1H326.4C338.6 250.1 348.4 240.3 348.4 228.1V92.1001C348.4 80.0001 338.6 70.1001 326.4 70.1001Z" stroke="#2D2D2D" stroke-width="6" stroke-miterlimit="10" stroke-linecap="round" stroke-linejoin="round"/>
<path d="M256.4 226.1H82.5V94.1001H256.4C292.9 94.1001 322.4 123.6 322.4 160.1C322.4 196.6 292.9 226.1 256.4 226.1Z" fill="#4F5E6D"/>
<path d="M256.4 226.1H82.5V94.1001H256.4C292.9 94.1001 322.4 123.6 322.4 160.1C322.4 196.6 292.9 226.1 256.4 226.1Z" stroke="#2D2D2D" stroke-width="5" stroke-miterlimit="10" stroke-linecap="round" stroke-linejoin="round"/>
<path d="M256.3 216.1C287.228 216.1 312.3 191.028 312.3 160.1C312.3 129.172 287.228 104.1 256.3 104.1C225.372 104.1 200.3 129.172 200.3 160.1C200.3 191.028 225.372 216.1 256.3 216.1Z" fill="#2D2D2D"/>
<path d="M259.2 215.3C255.8 211.9 252.9 208 250.5 203.8C243.2 191.2 241.2 176.8 244.5 162.9C237.4 172 233.4 183.3 233.4 195C233.4 199.5 234 204 235.1 208.3L236.2 212.5L232.3 210.7C223.4 206.5 215.8 200 210.2 191.9L209.7 191.1L209.9 190.2C211.2 185.5 213 181.1 215.4 176.9C222.7 164.3 234.2 155.3 247.8 151.3C245.3 150.9 242.9 150.8 240.4 150.8C231.3 150.8 222.4 153.2 214.5 157.8C210.6 160 207 162.8 203.9 165.9L200.8 168.9L200.5 164.6C200.4 162.9 200.3 161.5 200.3 160.1C200.3 151.7 202.1 143.6 205.7 136.1L206.1 135.3L207 135.1C211.7 133.9 216.5 133.2 221.3 133.2C235.8 133.2 249.4 138.7 259.7 148.4C255.4 137.7 247.6 128.6 237.5 122.7C233.6 120.5 229.5 118.7 225.1 117.5L221 116.4L224.5 114C232.6 108.4 242 105.1 251.8 104.3L252.7 104.2L253.4 104.9C256.8 108.3 259.7 112.2 262.1 116.4C269.4 129 271.4 143.4 268.1 157.3C275.2 148.2 279.2 136.9 279.2 125.2C279.2 120.7 278.6 116.2 277.5 111.9L276.4 107.7L280.3 109.5C289.2 113.7 296.8 120.2 302.4 128.3L302.9 129.1L302.7 130C301.4 134.6 299.6 139.1 297.2 143.3C289.9 155.9 278.4 164.9 264.8 168.9C267.3 169.3 269.7 169.4 272.2 169.4C281.3 169.4 290.2 167 298.1 162.4C302 160.2 305.6 157.4 308.7 154.3L311.8 151.3L312.1 155.6C312.2 157.3 312.3 158.7 312.3 160.1C312.3 168.5 310.5 176.6 306.9 184.1L306.5 184.9L305.6 185.1C300.9 186.3 296.1 187 291.3 187C276.8 187 263.2 181.5 252.9 171.8C257.2 182.5 265 191.6 275.1 197.5C279 199.7 283.1 201.5 287.5 202.7L291.6 203.8L288.1 206.2C280 211.8 270.6 215.1 260.8 215.9L259.9 216L259.2 215.3Z" fill="#FC244D"/>
<path d="M237.1 107.5C237.5 107.3 237.9 107.2 238.4 107.1C238 107.2 237.6 107.4 237.1 107.5Z" fill="#CE1D47"/>
<path d="M234.9 108.4C234.5 108.6 234.1 108.7 233.7 108.9C234.1 108.7 234.5 108.5 234.9 108.4Z" fill="#CE1D47"/>
<path d="M236.7 107.7C236.3 107.9 235.9 108 235.5 108.2C235.8 108 236.2 107.8 236.7 107.7Z" fill="#CE1D47"/>
<path d="M233.2 109.1C232.8 109.3 232.5 109.4 232.1 109.6C232.5 109.4 232.8 109.3 233.2 109.1Z" fill="#CE1D47"/>
<path d="M231.5 109.9C231.2 110.1 230.8 110.2 230.5 110.4C230.8 110.2 231.2 110.1 231.5 109.9Z" fill="#CE1D47"/>
<path d="M228.2 111.7C227.9 111.9 227.7 112 227.4 112.2C227.6 112 227.9 111.9 228.2 111.7Z" fill="#CE1D47"/>
<path d="M229.8 110.8C229.5 111 229.2 111.1 228.9 111.3C229.2 111.1 229.5 110.9 229.8 110.8Z" fill="#CE1D47"/>
<path d="M226.5 112.7C226.3 112.8 226.1 113 225.8 113.1C226.1 113 226.3 112.9 226.5 112.7Z" fill="#CE1D47"/>
<path d="M224.8 113.8C224.7 113.9 224.6 114 224.4 114L224.1 114.2C224.4 114.1 224.6 114 224.8 113.8Z" fill="#CE1D47"/>
<path d="M246.4 105C246.3 105 246.1 105.1 246 105.1L246.4 105Z" fill="#CE1D47"/>
<path d="M224 114.3L220.9 116.5L221.1 116.6C222.1 115.8 223 115 224 114.3Z" fill="#CE1D47"/>
<path d="M240.2 106.5C239.8 106.6 239.3 106.8 238.9 106.9C239.3 106.8 239.7 106.6 240.2 106.5Z" fill="#CE1D47"/>
<path d="M242 106C241.5 106.1 241.1 106.2 240.6 106.4C241.1 106.2 241.5 106.1 242 106Z" fill="#CE1D47"/>
<path d="M204.6 140.5C209.1 138.8 213.8 137.6 218.6 137.1C233 135.6 247.1 139.5 258.4 148.2C258.1 147.6 257.8 147.1 257.5 146.5C247.5 138 234.8 133.2 221.3 133.2C216.5 133.2 211.6 133.8 207 135.1L206.1 135.3L205.7 136.1C205 137.6 204.3 139.2 203.8 140.7L204.6 140.5Z" fill="#CE1D47"/>
<path d="M245.7 105.1C245.2 105.2 244.6 105.3 244.1 105.4C244.7 105.4 245.2 105.2 245.7 105.1Z" fill="#CE1D47"/>
<path d="M243.8 105.5C243.3 105.6 242.8 105.7 242.3 105.9C242.8 105.8 243.3 105.7 243.8 105.5Z" fill="#CE1D47"/>
<path d="M310.9 172.6C311 172.1 311.1 171.6 311.2 171.1C311.1 171.6 311 172.1 310.9 172.6Z" fill="#CE1D47"/>
<path d="M247.5 105.5C251.2 108.5 254.6 112.1 257.4 116C265.9 127.7 269.5 141.9 267.7 156C268 155.5 268.4 154.9 268.7 154.4C271.1 141.5 268.8 128.1 262.1 116.4C259.7 112.2 256.7 108.4 253.4 104.9L252.7 104.2L251.8 104.3C250.1 104.4 248.5 104.6 246.8 104.9L247.5 105.5Z" fill="#CE1D47"/>
<path d="M299.2 125.2C298.4 130 297.1 134.6 295.1 139C289.2 152.3 278.7 162.5 265.6 167.9C266.2 167.9 266.9 167.9 267.5 167.9C279.9 163.5 290.4 154.9 297.1 143.2C299.5 139 301.4 134.5 302.6 129.9L302.8 129L302.3 128.2C301.3 126.8 300.3 125.5 299.3 124.2L299.2 125.2Z" fill="#CE1D47"/>
<path d="M312 154.2C312.1 155 312.1 155.7 312.2 156.5C312.2 156.2 312.2 156 312.1 155.7L311.8 151.4L311.7 151.5C311.7 152.4 311.9 153.3 312 154.2Z" fill="#CE1D47"/>
<path d="M308 179.8C303.5 181.5 298.8 182.7 294 183.2C279.6 184.7 265.5 180.8 254.2 172.1C254.5 172.7 254.8 173.2 255.1 173.8C265.1 182.3 277.8 187.1 291.3 187.1C296.1 187.1 301 186.5 305.6 185.2L306.5 185L306.9 184.2C307.6 182.7 308.3 181.1 308.8 179.6L308 179.8Z" fill="#CE1D47"/>
<path d="M312.2 157.8C312.2 158.6 312.3 159.3 312.3 160.1C312.3 159.4 312.3 158.6 312.2 157.8Z" fill="#CE1D47"/>
<path d="M311.5 169.4C311.5 169.3 311.5 169.2 311.6 169C311.5 169.2 311.5 169.3 311.5 169.4Z" fill="#CE1D47"/>
<path d="M310.8 173.1C310.4 174.9 309.8 176.8 309.2 178.6C309.8 176.8 310.3 175 310.8 173.1Z" fill="#CE1D47"/>
<path d="M293.1 117.9C292.6 117.5 292.1 117 291.6 116.6C292 117.1 292.6 117.5 293.1 117.9Z" fill="#CE1D47"/>
<path d="M290.3 115.7C289.7 115.3 289.2 114.8 288.6 114.4C289.1 114.8 289.7 115.2 290.3 115.7Z" fill="#CE1D47"/>
<path d="M281 109.9C280.8 109.8 280.5 109.6 280.3 109.5L276.4 107.7L276.5 107.9C278 108.5 279.5 109.2 281 109.9Z" fill="#CE1D47"/>
<path d="M287.3 113.5C286.7 113.1 286 112.7 285.4 112.3C286.1 112.7 286.7 113.1 287.3 113.5Z" fill="#CE1D47"/>
<path d="M284.2 111.6C283.6 111.2 282.9 110.9 282.2 110.5C282.9 110.9 283.6 111.3 284.2 111.6Z" fill="#CE1D47"/>
<path d="M295.7 120.4C295.3 120 294.8 119.6 294.4 119.1C294.8 119.5 295.3 120 295.7 120.4Z" fill="#CE1D47"/>
<path d="M297 121.8C297.4 122.2 297.8 122.6 298.1 123C297.8 122.6 297.4 122.2 297 121.8Z" fill="#CE1D47"/>
<path d="M219.5 202.3C220 202.7 220.5 203.2 221 203.6C220.5 203.2 220 202.8 219.5 202.3Z" fill="#CE1D47"/>
<path d="M231.6 210.4C231.8 210.5 232.1 210.7 232.3 210.8L236.2 212.6L236.1 212.4C234.6 211.7 233 211.1 231.6 210.4Z" fill="#CE1D47"/>
<path d="M265.1 214.7C261.4 211.7 258 208.1 255.2 204.2C246.7 192.5 243.1 178.3 244.9 164.2C244.6 164.7 244.2 165.3 243.9 165.8C241.5 178.7 243.8 192.1 250.5 203.8C252.9 208 255.9 211.8 259.2 215.3L259.9 216L260.8 215.9C262.5 215.8 264.1 215.6 265.8 215.3L265.1 214.7Z" fill="#CE1D47"/>
<path d="M216.9 199.9C217.3 200.3 217.8 200.7 218.2 201.2C217.7 200.7 217.3 200.3 216.9 199.9Z" fill="#CE1D47"/>
<path d="M228.3 208.6C228.9 209 229.6 209.3 230.3 209.7C229.6 209.3 229 209 228.3 208.6Z" fill="#CE1D47"/>
<path d="M225.2 206.7C225.8 207.1 226.4 207.5 227.1 207.9C226.5 207.5 225.8 207.1 225.2 206.7Z" fill="#CE1D47"/>
<path d="M272.4 213.7C272.8 213.6 273.3 213.4 273.7 213.3C273.3 213.5 272.8 213.6 272.4 213.7Z" fill="#CE1D47"/>
<path d="M222.3 204.6C222.9 205 223.4 205.4 224 205.9C223.4 205.4 222.9 205 222.3 204.6Z" fill="#CE1D47"/>
<path d="M287.7 206.4C287.8 206.3 287.9 206.2 288.1 206.2L288.4 206C288.2 206.1 288 206.3 287.7 206.4Z" fill="#CE1D47"/>
<path d="M270.6 214.2C271 214.1 271.5 214 271.9 213.8C271.5 214 271.1 214.1 270.6 214.2Z" fill="#CE1D47"/>
<path d="M288.5 205.9L291.6 203.7L291.4 203.6C290.5 204.5 289.5 205.2 288.5 205.9Z" fill="#CE1D47"/>
<path d="M266.1 215.2C266.2 215.2 266.4 215.2 266.5 215.1L266.1 215.2Z" fill="#CE1D47"/>
<path d="M268.8 214.7C269.3 214.6 269.7 214.5 270.2 214.4C269.7 214.5 269.3 214.6 268.8 214.7Z" fill="#CE1D47"/>
<path d="M266.9 215.1C267.4 215 267.9 214.9 268.4 214.8C267.9 214.9 267.4 215 266.9 215.1Z" fill="#CE1D47"/>
<path d="M284.4 208.5C284.7 208.3 284.9 208.2 285.2 208C284.9 208.2 284.7 208.4 284.4 208.5Z" fill="#CE1D47"/>
<path d="M277.6 211.9C278 211.7 278.4 211.6 278.7 211.4C278.4 211.6 278 211.7 277.6 211.9Z" fill="#CE1D47"/>
<path d="M279.4 211.1C279.8 210.9 280.1 210.8 280.5 210.6C280.1 210.8 279.7 211 279.4 211.1Z" fill="#CE1D47"/>
<path d="M275.9 212.5C276.3 212.4 276.7 212.2 277.1 212C276.7 212.2 276.3 212.4 275.9 212.5Z" fill="#CE1D47"/>
<path d="M275.4 212.7C275 212.8 274.6 213 274.2 213.1C274.6 213 275 212.9 275.4 212.7Z" fill="#CE1D47"/>
<path d="M281 210.3C281.3 210.1 281.7 210 282 209.8C281.7 210 281.4 210.2 281 210.3Z" fill="#CE1D47"/>
<path d="M286.1 207.5C286.3 207.4 286.5 207.2 286.8 207.1C286.5 207.3 286.3 207.4 286.1 207.5Z" fill="#CE1D47"/>
<path d="M282.7 209.5C283 209.3 283.3 209.2 283.6 209C283.3 209.1 283 209.3 282.7 209.5Z" fill="#CE1D47"/>
<path d="M200.3 162.4C200.3 161.7 200.2 160.9 200.2 160.2C200.3 160.9 200.3 161.6 200.3 162.4Z" fill="#CE1D47"/>
<path d="M200.6 166.1C200.5 165.4 200.5 164.7 200.4 163.9C200.4 164.1 200.4 164.4 200.5 164.6L200.8 168.9L200.9 168.8C200.8 167.8 200.7 166.9 200.6 166.1Z" fill="#CE1D47"/>
<path d="M203.4 141.7C202.8 143.5 202.2 145.3 201.8 147.2C202.2 145.3 202.8 143.5 203.4 141.7Z" fill="#CE1D47"/>
<path d="M213.4 195C214.2 190.2 215.5 185.6 217.5 181.2C223.4 167.9 233.9 157.7 247 152.3C246.4 152.3 245.7 152.3 245.1 152.3C232.7 156.7 222.2 165.3 215.5 177C213.1 181.2 211.2 185.7 210 190.3L209.8 191.2L210.3 192C211.3 193.4 212.3 194.7 213.3 196L213.4 195Z" fill="#CE1D47"/>
<path d="M215.5 198.5C215.1 198.1 214.7 197.7 214.4 197.3C214.8 197.7 215.1 198.1 215.5 198.5Z" fill="#CE1D47"/>
<path d="M201 151.2C201 151.1 201 151 201.1 150.8C201 150.9 201 151 201 151.2Z" fill="#CE1D47"/>
<path d="M201.4 149.2C201.5 148.7 201.6 148.2 201.7 147.7C201.6 148.2 201.5 148.7 201.4 149.2Z" fill="#CE1D47"/>
<path d="M255.3 181.1C266.898 181.1 276.3 171.698 276.3 160.1C276.3 148.502 266.898 139.1 255.3 139.1C243.702 139.1 234.3 148.502 234.3 160.1C234.3 171.698 243.702 181.1 255.3 181.1Z" fill="#FC244D"/>
<path d="M255.3 175.6C263.86 175.6 270.8 168.661 270.8 160.1C270.8 151.54 263.86 144.6 255.3 144.6C246.739 144.6 239.8 151.54 239.8 160.1C239.8 168.661 246.739 175.6 255.3 175.6Z" fill="#CE1D47"/>
<path d="M255.2 173.1C262.38 173.1 268.2 167.28 268.2 160.1C268.2 152.92 262.38 147.1 255.2 147.1C248.02 147.1 242.2 152.92 242.2 160.1C242.2 167.28 248.02 173.1 255.2 173.1Z" fill="#2D2D2D"/>
<path d="M256.3 216.1C287.228 216.1 312.3 191.028 312.3 160.1C312.3 129.172 287.228 104.1 256.3 104.1C225.372 104.1 200.3 129.172 200.3 160.1C200.3 191.028 225.372 216.1 256.3 216.1Z" stroke="#2D2D2D" stroke-width="6" stroke-miterlimit="10" stroke-linecap="round" stroke-linejoin="round"/>
<path d="M150.7 125.4H102.2C97.8999 125.4 94.3999 121.9 94.3999 117.6C94.3999 113.3 97.8999 109.8 102.2 109.8H150.7C155 109.8 158.5 113.3 158.5 117.6C158.5 121.9 155 125.4 150.7 125.4Z" fill="#2D2D2D"/>
<path d="M102.3 125.4C98.6 125.4 95.5 122.4 95.5 118.6C95.5 114.8 98.5 111.8 102.3 111.8H150.8C154.5 111.8 157.6 114.8 157.6 118.6C157.6 122.4 154.6 125.4 150.8 125.4H102.3Z" fill="#232323"/>
<path d="M150.7 152.4H102.2C97.8999 152.4 94.3999 148.9 94.3999 144.6C94.3999 140.3 97.8999 136.8 102.2 136.8H150.7C155 136.8 158.5 140.3 158.5 144.6C158.5 148.9 155 152.4 150.7 152.4Z" fill="#2D2D2D"/>
<path d="M102.3 152.4C98.6 152.4 95.5 149.4 95.5 145.6C95.5 141.8 98.5 138.8 102.3 138.8H150.8C154.5 138.8 157.6 141.8 157.6 145.6C157.6 149.4 154.6 152.4 150.8 152.4H102.3Z" fill="#232323"/>
<path d="M150.7 179.4H102.2C97.8999 179.4 94.3999 175.9 94.3999 171.6C94.3999 167.3 97.8999 163.8 102.2 163.8H150.7C155 163.8 158.5 167.3 158.5 171.6C158.5 175.9 155 179.4 150.7 179.4Z" fill="#2D2D2D"/>
<path d="M102.3 179.4C98.6 179.4 95.5 176.4 95.5 172.6C95.5 168.9 98.5 165.8 102.3 165.8H150.8C154.5 165.8 157.6 168.8 157.6 172.6C157.6 176.3 154.6 179.4 150.8 179.4H102.3Z" fill="#232323"/>
<path d="M150.7 206.4H102.2C97.8999 206.4 94.3999 202.9 94.3999 198.6C94.3999 194.3 97.8999 190.8 102.2 190.8H150.7C155 190.8 158.5 194.3 158.5 198.6C158.5 202.9 155 206.4 150.7 206.4Z" fill="#2D2D2D"/>
<path d="M102.3 206.4C98.6 206.4 95.5 203.4 95.5 199.6C95.5 195.8 98.5 192.8 102.3 192.8H150.8C154.5 192.8 157.6 195.8 157.6 199.6C157.6 203.4 154.6 206.4 150.8 206.4H102.3Z" fill="#232323"/>
<path d="M82.5 268.5C78.6 268.5 75.5 265.4 75.5 261.5V250.2H89.5V261.5C89.5 265.3 86.4 268.5 82.5 268.5Z" fill="#2D2D2D" stroke="#2D2D2D" stroke-width="6" stroke-miterlimit="10"/>
</svg>
